<?xml version="1.0" standalone="no"?>
<!DOCTYPE svg PUBLIC "-//W3C//DTD SVG 20010904//EN"
 "http://www.w3.org/TR/2001/REC-SVG-20010904/DTD/svg10.dtd">
<svg version="1.0" xmlns="http://www.w3.org/2000/svg"
 width="800.000000pt" height="800.000000pt" viewBox="0 0 800.000000 800.000000"
 preserveAspectRatio="xMidYMid meet">
<metadata>
Created by potrace 1.16, written by Peter Selinger 2001-2019
</metadata>
<g transform="translate(0.000000,800.000000) scale(0.100000,-0.100000)"
fill="#000000" stroke="none">
<path d="M4091 7515 c-91 -20 -163 -60 -220 -120 -78 -83 -120 -183 -135 -327
l-6 -58 461 0 462 0 -7 63 c-14 125 -49 220 -107 293 -99 125 -284 186 -448
149z"/>
<path d="M2559 7062 c-91 -58 -153 -158 -170 -275 -5 -34 -9 -249 -9 -477 l0
-415 -63 -52 -62 -52 -6 362 c-3 209 -10 375 -16 392 -41 120 -129 216 -246
270 -118 54 -114 54 -121 -7 -8 -71 8 -201 34 -270 27 -74 97 -141 171 -162
29 -9 59 -16 66 -16 10 0 13 -30 13 -138 l0 -138 -53 51 c-49 46 -228 155
-255 155 -32 0 -26 -161 8 -254 28 -75 106 -146 192 -175 34 -12 72 -21 85
-21 22 0 23 -3 23 -76 l0 -77 -67 -71 c-87 -91 -143 -158 -232 -275 -59 -77
-71 -100 -69 -125 3 -28 7 -31 38 -34 33 -2 39 3 112 95 42 54 108 132 147
173 l70 75 1 -66 c0 -69 10 -89 46 -89 46 0 54 23 54 144 l0 113 62 59 62 59
8 -49 c7 -49 19 -66 49 -66 31 0 39 23 39 110 l1 85 47 35 c351 262 757 444
1170 524 370 72 634 72 1004 0 409 -79 791 -248 1140 -503 l77 -56 1 -86 c0
-89 8 -109 45 -109 32 0 45 20 45 68 0 24 4 42 9 40 5 -1 37 -29 70 -61 l61
-58 0 -113 c0 -118 6 -136 45 -136 35 0 45 20 45 92 l0 69 75 -83 c42 -46 108
-124 148 -175 73 -92 96 -109 127 -93 30 16 30 47 1 92 -45 70 -188 246 -273
334 l-79 82 3 72 3 72 65 17 c173 43 249 143 258 339 3 73 1 102 -7 102 -43 0
-262 -137 -300 -187 l-20 -28 -1 141 0 142 43 6 c66 10 143 60 178 114 45 71
62 142 63 267 1 130 8 126 -121 65 -105 -49 -173 -112 -216 -199 l-32 -66 -3
-383 -3 -383 -68 58 -69 58 -4 465 c-3 459 -3 466 -26 522 -27 67 -101 153
-160 186 -50 28 -54 23 -60 -79 -6 -110 14 -163 94 -249 l64 -67 0 -82 0 -81
-52 34 c-55 34 -185 86 -218 86 -42 0 -35 -192 11 -286 34 -72 135 -143 227
-160 l32 -6 0 -103 0 -103 -137 91 c-430 287 -931 449 -1493 483 -194 12 -535
-29 -796 -95 -322 -82 -606 -207 -876 -388 l-138 -91 0 103 0 103 34 6 c55 10
152 64 187 103 62 72 91 187 75 298 l-8 47 -41 -6 c-45 -7 -170 -62 -218 -97
l-29 -20 0 83 0 84 51 49 c98 96 130 186 109 301 -7 35 -15 64 -19 64 -4 0
-27 -13 -52 -28z"/>
<path d="M3380 6890 c-29 -29 -27 -84 5 -115 23 -23 31 -25 130 -25 109 0 128
-5 178 -46 l29 -24 464 0 c488 0 481 -1 537 46 26 22 38 24 136 24 94 0 112 3
135 21 33 26 37 88 6 119 -20 20 -33 20 -810 20 -777 0 -790 0 -810 -20z"/>
<path d="M1552 6078 c-54 -80 -75 -131 -80 -199 -5 -77 7 -108 67 -162 l41
-37 -1 -82 c0 -81 0 -82 -17 -58 -49 72 -172 180 -205 180 -5 0 -7 -44 -5
-102 3 -80 9 -112 26 -144 28 -55 93 -109 153 -129 l49 -17 0 -177 c0 -192 7
-221 55 -221 52 0 55 15 55 235 l0 203 50 37 c48 35 96 88 119 132 33 64 34
193 2 193 -33 0 -110 -59 -145 -112 l-36 -53 0 151 c0 83 -5 177 -11 210 -11
61 -66 194 -80 194 -4 0 -21 -19 -37 -42z"/>
<path d="M6772 6086 c-51 -86 -64 -150 -70 -339 l-5 -178 -19 33 c-30 49 -68
87 -110 109 -62 32 -68 28 -68 -45 0 -108 41 -186 136 -257 l54 -41 0 -203 c0
-172 2 -206 16 -219 22 -23 71 -20 84 3 6 12 10 95 10 200 l0 180 38 10 c60
17 128 66 155 113 31 52 52 162 42 223 l-6 45 -38 -20 c-56 -28 -99 -67 -148
-133 l-43 -59 0 89 c0 88 0 89 30 106 62 37 95 119 79 201 -10 55 -52 143 -89
187 l-26 32 -22 -37z"/>
<path d="M3937 5717 l-257 -354 -105 -48 -105 -48 -95 -127 c-52 -70 -95 -130
-95 -133 0 -4 90 -3 200 0 168 5 200 4 200 -8 0 -8 3 -24 6 -36 6 -23 6 -23
-121 -23 -113 0 -126 -2 -121 -16 11 -29 249 -353 256 -349 4 2 116 149 250
325 133 176 246 319 250 318 5 -2 117 -147 250 -323 133 -176 244 -321 248
-322 7 -3 262 348 262 360 0 4 -57 7 -126 7 l-125 0 3 33 3 32 203 -3 c175 -3
203 -2 195 11 -4 8 -48 68 -98 135 l-90 120 -105 47 -105 47 -255 354 c-140
194 -258 353 -261 353 -3 1 -121 -158 -262 -352z m480 -175 l45 -63 -69 44
c-122 78 -107 80 -155 -17 -23 -47 -46 -82 -50 -80 -5 3 -27 41 -49 85 -27 54
-44 77 -52 73 -7 -4 -48 -30 -92 -57 -44 -28 -73 -41 -64 -31 9 10 71 97 138
192 l122 173 91 -128 c50 -70 110 -156 135 -191z"/>
<path d="M3187 5966 c-98 -35 -157 -122 -157 -231 1 -183 184 -292 351 -207
99 50 145 154 119 270 -10 46 -21 65 -64 107 -72 72 -158 93 -249 61z"/>
<path d="M5050 5971 c-125 -41 -196 -156 -171 -280 15 -74 50 -124 114 -161
43 -25 63 -30 118 -30 94 0 162 36 205 108 97 160 -1 356 -184 368 -31 2 -68
0 -82 -5z"/>
<path d="M2773 5338 c-22 -29 -169 -233 -328 -453 -158 -220 -296 -410 -305
-422 -18 -23 -18 -22 -185 193 -156 201 -168 215 -196 212 -26 -3 -55 -37
-237 -283 l-208 -280 -131 -5 c-139 -5 -163 -14 -163 -56 0 -58 -86 -54 1314
-54 1308 0 1306 0 1306 35 0 18 -800 1160 -815 1163 -7 2 -31 -21 -52 -50z
m197 -338 c83 -110 148 -200 145 -200 -3 0 -36 23 -72 50 -37 28 -71 49 -77
47 -6 -2 -38 -47 -71 -99 l-60 -96 -55 99 c-30 54 -59 99 -64 99 -4 0 -57 -29
-116 -64 l-109 -64 162 214 c89 118 163 214 164 214 2 0 70 -90 153 -200z"/>
<path d="M5538 5373 c-8 -10 -192 -272 -408 -582 -317 -454 -391 -567 -383
-580 9 -15 121 -16 1298 -19 943 -1 1291 1 1301 9 17 14 18 61 2 77 -8 8 -55
12 -142 13 l-131 0 -213 290 c-190 257 -217 289 -241 289 -24 0 -49 -27 -190
-210 -89 -115 -166 -211 -169 -214 -4 -2 -160 208 -347 467 -187 259 -345 472
-351 474 -6 2 -17 -4 -26 -14z m182 -378 c79 -104 148 -196 154 -204 6 -9 7
-12 1 -9 -5 3 -53 31 -107 62 -53 31 -100 56 -105 56 -4 0 -30 -41 -56 -90
-26 -49 -52 -92 -57 -95 -4 -3 -34 35 -65 85 -31 49 -61 93 -66 96 -6 3 -44
-20 -86 -51 -42 -32 -72 -51 -67 -44 36 61 299 398 304 392 4 -4 72 -93 150
-198z"/>
<path d="M2097 5233 c-11 -11 -8 -48 5 -61 8 -8 54 -12 140 -12 127 0 129 0
140 25 21 47 1 55 -147 55 -72 0 -135 -3 -138 -7z"/>
<path d="M6004 5226 c-3 -8 -4 -25 -2 -38 3 -22 6 -23 123 -26 155 -4 167 -1
163 41 l-3 32 -138 3 c-113 2 -138 0 -143 -12z"/>
<path d="M1984 4976 c-3 -8 -4 -25 -2 -38 3 -23 4 -23 143 -23 l140 0 3 29 c2
16 -2 32 -10 37 -7 5 -71 9 -141 9 -101 0 -129 -3 -133 -14z"/>
<path d="M6120 4976 c-6 -8 -10 -25 -8 -38 3 -23 6 -23 139 -26 113 -2 138 0
149 13 10 12 10 21 2 40 -11 25 -13 25 -141 25 -100 0 -131 -3 -141 -14z"/>
<path d="M4117 4793 c-36 -43 -79 -91 -96 -107 -43 -41 -41 -71 9 -113 22 -19
40 -44 40 -55 0 -22 -6 -18 -129 90 l-61 54 0 -161 0 -161 50 0 50 0 0 48 1
47 42 -48 42 -47 127 0 126 0 41 48 41 47 0 -47 0 -48 55 0 55 0 0 160 c0 88
-3 160 -6 160 -4 0 -46 -36 -94 -80 -48 -44 -90 -80 -94 -80 -19 0 0 38 34 67
46 40 53 78 19 109 -12 10 -55 58 -96 107 -41 48 -78 87 -83 87 -4 0 -37 -35
-73 -77z m78 -343 l35 0 0 131 c0 116 2 130 15 119 12 -10 15 -40 15 -151 l0
-139 -65 0 -65 0 0 138 c0 97 4 142 13 151 10 10 13 -14 15 -118 l3 -131 34 0z"/>
<path d="M3810 4261 c-23 -23 -30 -38 -30 -69 0 -57 42 -92 111 -92 l49 0 0
-140 0 -140 250 0 250 0 0 134 0 133 52 7 c40 6 59 15 86 42 30 30 34 39 28
67 -4 17 -18 43 -31 57 l-25 25 -356 3 -355 3 -29 -30z m438 -134 c71 -34 66
-154 -8 -192 -37 -19 -54 -19 -96 1 -88 42 -82 160 10 200 32 13 53 11 94 -9z"/>
<path d="M1563 4050 c-17 -10 -37 -28 -43 -40 -19 -35 -29 -183 -20 -274 15
-144 49 -170 220 -164 91 2 113 6 137 24 51 38 58 65 58 229 0 131 -2 154 -20
182 -30 51 -67 63 -192 63 -89 0 -113 -3 -140 -20z m243 -105 c13 -19 15 -46
12 -135 -4 -134 -8 -140 -108 -140 -105 0 -110 7 -110 150 0 148 1 150 110
150 73 0 81 -2 96 -25z"/>
<path d="M1050 3819 l0 -241 150 4 150 3 32 32 c28 28 33 40 36 96 4 56 1 66
-21 93 -25 29 -25 32 -9 48 13 12 17 34 17 82 0 61 -2 67 -33 95 l-32 29 -145
0 -145 0 0 -241z m248 139 c19 -19 15 -66 -7 -78 -11 -5 -47 -10 -80 -10 l-61
0 0 50 0 50 68 0 c40 0 73 -5 80 -12z m16 -194 c19 -18 20 -38 6 -65 -9 -16
-22 -19 -90 -19 l-80 0 0 50 0 50 74 0 c54 0 79 -4 90 -16z"/>
<path d="M2000 3852 c0 -233 3 -243 68 -262 20 -5 83 -10 140 -10 l102 0 0 50
0 50 -105 0 -105 0 0 190 0 190 -50 0 -50 0 0 -208z"/>
<path d="M2370 3820 l0 -240 50 0 50 0 0 240 0 240 -50 0 -50 0 0 -240z"/>
<path d="M2540 4051 c0 -25 134 -438 146 -451 20 -20 128 -20 148 0 14 14 146
419 146 448 0 9 -14 12 -51 10 l-52 -3 -55 -182 c-31 -100 -58 -180 -61 -177
-3 3 -31 85 -61 182 l-56 177 -52 3 c-29 2 -52 -1 -52 -7z"/>
<path d="M3050 3820 l0 -240 50 0 50 0 0 240 0 240 -50 0 -50 0 0 -240z"/>
<path d="M3372 4052 c-10 -7 -152 -439 -152 -465 0 -4 23 -7 52 -5 l52 3 20
63 20 62 81 0 80 0 19 -65 18 -65 55 0 c47 0 54 2 49 18 -44 154 -131 422
-142 440 -13 19 -23 22 -77 22 -34 0 -68 -4 -75 -8z"/>
<path d="M4831 3868 c1 -106 4 -204 8 -217 3 -13 19 -34 34 -45 25 -19 42 -21
150 -21 l122 0 0 45 0 45 -102 3 -103 3 0 189 0 190 -55 0 -55 0 1 -192z"/>
<path d="M5210 3869 c0 -173 2 -195 20 -223 30 -49 61 -61 159 -61 63 0 95 5
118 18 57 31 63 54 63 267 l0 190 -50 0 -50 0 0 -173 c0 -201 -2 -207 -83
-207 -73 0 -77 12 -77 212 l0 168 -50 0 -50 0 0 -191z"/>
<path d="M5660 3819 l0 -241 144 4 c127 3 148 5 173 24 52 38 63 76 63 212 0
138 -10 173 -59 215 -32 27 -35 27 -177 27 l-144 0 0 -241z m255 126 c23 -22
25 -31 25 -125 0 -129 -8 -140 -110 -140 l-70 0 0 145 0 145 65 0 c57 0 69 -3
90 -25z"/>
<path d="M6122 3823 l3 -238 50 0 50 0 3 238 2 237 -55 0 -55 0 2 -237z"/>
<path d="M6375 4040 c-55 -36 -65 -70 -65 -215 0 -207 27 -237 218 -244 l112
-3 0 51 0 51 -99 0 c-130 0 -131 1 -131 131 0 95 9 135 34 151 6 4 53 8 104 8
l92 0 0 45 0 45 -117 0 c-101 0 -122 -3 -148 -20z"/>
<path d="M6860 4046 c-9 -12 -150 -445 -150 -462 0 -2 24 -4 54 -4 l54 0 18
65 19 65 80 0 81 0 20 -62 20 -63 52 -3 c29 -2 52 1 52 5 0 27 -140 457 -152
464 -23 15 -134 11 -148 -5z"/>
<path d="M3940 3696 c0 -81 3 -77 -70 -91 -93 -19 -185 -96 -208 -174 -27 -88
-2 -200 62 -284 28 -36 30 -37 96 -37 l67 0 6 56 c12 120 73 220 161 267 34
18 57 22 136 22 86 0 100 -3 148 -29 29 -17 66 -48 83 -70 29 -39 61 -130 74
-208 l6 -38 64 0 65 0 35 48 c45 61 65 121 65 194 0 130 -84 223 -230 253
l-55 12 -3 76 -3 77 -249 0 -250 0 0 -74z"/>
<path d="M1032 3458 c-19 -19 -14 -55 10 -72 18 -13 53 -16 175 -16 150 0 153
0 158 -22 115 -519 248 -856 469 -1188 447 -670 1151 -1053 2100 -1141 159
-15 484 -7 651 16 887 119 1536 501 1964 1154 196 300 360 716 441 1124 l11
57 155 0 c88 0 164 4 175 10 22 12 26 59 7 78 -9 9 -253 12 -1036 12 -1128 0
-1095 2 -1231 -63 -114 -53 -192 -148 -216 -264 l-7 -33 218 0 c194 0 218 2
229 17 12 16 18 16 62 4 26 -7 58 -16 70 -18 l21 -5 -23 99 c-13 54 -23 99
-22 99 1 1 37 -38 81 -87 43 -50 84 -88 90 -86 6 2 35 45 66 95 30 50 55 90
57 89 1 -2 7 -43 13 -92 6 -49 13 -92 16 -94 2 -3 41 31 85 75 l80 79 -25 -65
c-13 -36 -27 -72 -31 -81 -12 -30 113 -39 169 -12 33 15 37 15 54 0 16 -15 47
-17 235 -17 198 0 220 2 254 20 48 25 99 25 141 0 22 -14 50 -20 88 -20 53 0
55 -1 48 -22 -4 -13 -12 -26 -18 -30 -19 -13 -92 -9 -129 7 -45 19 -104 19
-137 0 -21 -12 -194 -14 -1151 -15 l-1126 0 5 30 c7 48 -8 120 -29 141 -26 26
-92 26 -119 -1 -16 -16 -20 -33 -20 -95 l0 -75 -1127 0 c-959 1 -1132 3 -1153
15 -33 19 -90 19 -139 -1 -21 -8 -58 -14 -82 -12 -35 2 -46 8 -56 28 l-12 25
55 3 c32 2 68 11 87 22 41 26 103 25 145 0 30 -18 50 -20 249 -20 187 0 219 2
235 17 17 15 21 15 57 -2 32 -14 53 -16 105 -10 36 3 66 8 66 11 0 2 -11 33
-25 70 -14 36 -25 69 -25 71 0 3 35 -27 78 -66 l77 -70 7 27 c4 15 11 58 15
97 l8 69 59 -97 c32 -53 61 -97 65 -97 3 0 43 39 88 87 l82 88 -14 -60 c-24
-98 -28 -135 -18 -135 5 0 35 9 67 20 56 19 57 19 69 0 11 -19 24 -20 231 -20
l218 0 -6 38 c-26 143 -149 255 -332 302 -74 19 -114 20 -1109 20 -788 0
-1034 -3 -1043 -12z m5723 -609 c2 -3 -1 -20 -7 -37 -10 -25 -18 -32 -38 -32
-19 0 -35 -13 -63 -50 -20 -27 -37 -53 -37 -57 0 -4 12 -17 27 -29 l27 -22
-24 -51 -24 -52 -73 73 c-40 40 -73 77 -73 82 0 6 28 39 62 73 l62 63 -85 0
-85 0 -35 -37 c-19 -21 -47 -52 -62 -68 l-27 -31 94 -82 95 -82 61 0 61 0 -16
-30 -16 -30 -2388 0 -2388 0 -11 25 c-7 14 -12 28 -12 30 0 3 25 5 56 5 56 0
57 0 150 81 52 45 94 84 94 86 0 3 -28 34 -62 69 l-61 64 -79 0 c-43 0 -78 -4
-78 -8 0 -4 27 -34 60 -67 l60 -59 -72 -73 c-40 -40 -76 -73 -80 -73 -5 0 -18
21 -31 46 l-22 46 28 22 c15 12 27 25 27 30 0 5 -16 30 -36 57 -26 36 -42 49
-60 49 -19 0 -29 8 -40 35 -7 19 -14 37 -14 41 0 8 5127 0 5135 -7z m-3381
-621 c30 -35 88 -103 130 -153 l76 -90 -32 -3 c-28 -3 -42 7 -139 104 l-108
107 -49 -54 c-27 -30 -71 -79 -98 -111 -27 -31 -52 -56 -56 -55 -3 1 -50 52
-104 112 -54 61 -103 110 -110 110 -7 0 -62 -46 -123 -102 -61 -57 -119 -103
-129 -103 -10 0 -42 12 -71 26 -118 59 -149 198 -52 232 l29 10 -14 -33 c-33
-79 0 -145 71 -145 52 0 80 18 175 114 112 114 114 114 221 -9 45 -52 90 -95
99 -95 10 0 59 45 110 100 51 55 98 100 105 100 8 0 38 -28 69 -62z m1806 -38
c52 -56 101 -100 111 -100 10 0 53 41 101 95 64 74 88 95 108 95 19 0 48 -23
110 -86 47 -47 97 -92 112 -100 40 -21 104 -18 128 6 24 24 27 88 5 130 l-15
29 29 -10 c41 -15 61 -41 63 -82 2 -69 -84 -160 -164 -173 -32 -6 -40 0 -149
100 -63 58 -117 106 -121 106 -4 0 -53 -52 -110 -116 l-102 -116 -46 49 c-25
26 -71 77 -103 113 l-58 64 -108 -108 c-95 -95 -111 -107 -138 -104 -30 3 -30
4 99 156 71 83 135 152 143 152 7 0 55 -45 105 -100z m-885 60 c18 -17 25 -34
25 -61 0 -42 -25 -78 -91 -130 l-40 -31 -47 43 c-83 75 -100 119 -66 167 23
34 51 42 126 39 55 -2 72 -7 93 -27z m-486 -127 c118 -125 120 -128 91 -131
-25 -3 -48 13 -147 98 -116 99 -119 100 -166 98 -52 -2 -84 18 -74 46 5 13 23
16 91 16 l84 0 121 -127z m1059 103 c6 -29 -22 -44 -73 -39 -43 5 -45 5 -162
-96 -98 -84 -124 -101 -151 -101 -34 0 -33 1 89 130 l123 131 85 -3 c76 -3 86
-5 89 -22z m-2228 -463 c-87 -95 -115 -123 -122 -123 -8 0 -188 148 -188 155
0 3 77 5 172 5 l172 0 -34 -37z m941 10 c-10 -16 -43 -50 -71 -78 -28 -27 -78
-80 -111 -117 l-60 -66 177 -187 c174 -183 176 -186 138 -180 -112 20 -102 13
-233 160 -69 77 -128 141 -132 143 -4 2 -35 -33 -69 -78 -34 -44 -68 -80 -75
-80 -12 0 -175 67 -183 75 -3 2 25 38 62 80 36 42 66 79 66 83 0 5 -46 60
-101 123 -56 62 -108 122 -117 132 -14 16 3 17 357 17 l372 0 -20 -27z m259
22 c0 -4 -62 -74 -137 -156 l-136 -150 184 -185 c189 -189 190 -191 106 -177
-34 5 -56 26 -209 196 l-170 189 38 42 c21 22 84 87 139 144 96 98 101 102
142 102 24 0 43 -2 43 -5z m150 -135 c-67 -77 -120 -144 -118 -149 4 -13 312
-341 319 -341 11 0 319 333 319 344 0 6 -54 73 -120 149 l-121 137 50 0 50 0
108 -128 c59 -70 114 -135 121 -144 12 -15 -9 -40 -189 -222 -111 -114 -210
-206 -220 -206 -15 0 -410 398 -411 415 0 4 52 70 117 146 l117 139 50 0 49 0
-121 -140z m774 -1 c76 -77 136 -144 134 -149 -9 -24 -334 -376 -352 -381 -12
-3 -39 -9 -61 -12 -39 -6 -36 -3 143 176 100 100 182 186 182 191 0 4 -53 67
-117 138 -65 71 -126 141 -136 154 l-19 24 45 0 c44 0 46 -1 181 -141z m745
122 c-8 -11 -61 -72 -118 -135 -92 -104 -102 -118 -90 -134 8 -9 37 -44 66
-78 29 -34 53 -63 53 -66 0 -5 -70 -38 -153 -73 l-35 -15 -64 90 c-35 49 -68
88 -74 87 -6 -1 -66 -67 -133 -147 -113 -133 -127 -146 -169 -158 -26 -6 -52
-11 -58 -10 -7 2 62 82 151 178 90 96 164 182 164 190 1 8 -61 77 -136 152
l-138 138 374 0 c367 0 373 0 360 -19z m525 -2 c-28 -31 -161 -139 -171 -139
-5 0 -42 36 -82 80 l-72 80 172 0 172 0 -19 -21z m-3196 -121 c32 -35 74 -80
91 -100 l33 -38 -48 -54 c-41 -46 -50 -52 -66 -42 -23 14 -23 21 4 59 l22 30
-55 49 c-30 26 -57 48 -60 48 -4 0 -19 -18 -34 -40 -31 -45 -36 -47 -76 -23
l-29 17 77 78 c43 43 78 78 79 78 1 0 29 -28 62 -62z m2905 -106 c-46 -35 -51
-34 -83 13 -35 51 -36 51 -110 -14 l-44 -39 28 -36 c15 -21 26 -39 25 -40 -31
-25 -42 -22 -91 30 l-51 54 93 100 93 101 79 -78 c72 -71 77 -79 61 -91z
m-1460 55 l86 -93 -86 -93 -86 -93 -93 93 -93 92 87 94 c47 51 89 93 93 93 3
0 45 -42 92 -93z"/>
<path d="M2099 2752 l64 -58 -86 -95 c-48 -51 -87 -97 -87 -101 0 -5 119 -8
265 -8 146 0 265 3 265 6 0 3 -36 49 -79 101 l-79 97 62 49 c33 27 65 53 70
58 6 5 -81 9 -225 9 l-234 0 64 -58z"/>
<path d="M2511 2748 c-39 -34 -71 -67 -71 -73 0 -6 35 -46 78 -88 77 -76 80
-78 123 -75 l44 3 -69 73 -68 72 67 75 67 75 -50 0 c-48 0 -55 -4 -121 -62z"/>
<path d="M2840 2802 c0 -4 18 -26 41 -47 22 -22 50 -52 61 -68 l19 -27 -60
-68 c-34 -38 -61 -72 -61 -75 0 -4 17 -7 39 -7 35 0 46 7 120 83 l81 82 -72
67 c-69 63 -76 67 -120 68 -27 0 -48 -4 -48 -8z"/>
<path d="M3326 2749 c-37 -34 -66 -68 -64 -75 2 -7 36 -51 76 -98 l73 -86 67
0 67 -1 87 93 87 93 -67 68 -66 67 -97 0 -96 0 -67 -61z"/>
<path d="M3725 2742 l70 -68 -87 -83 c-49 -46 -88 -87 -88 -92 0 -5 21 -9 46
-9 45 0 50 3 138 88 50 48 91 92 91 98 0 5 -30 38 -66 72 -65 60 -68 62 -120
62 l-54 -1 70 -67z"/>
<path d="M3870 2801 c0 -5 28 -35 62 -66 l62 -58 -92 -88 c-50 -48 -92 -90
-92 -93 0 -3 14 -6 31 -6 25 0 49 17 125 88 52 48 94 92 94 97 0 6 -28 39 -63
73 -51 50 -69 62 -95 62 -17 0 -32 -4 -32 -9z"/>
<path d="M4381 2746 c-35 -35 -62 -68 -60 -73 2 -6 45 -49 95 -96 75 -71 97
-87 123 -87 17 0 31 3 31 8 0 4 -41 45 -91 91 l-91 84 68 68 68 69 -40 0 c-35
0 -46 -7 -103 -64z"/>
<path d="M4549 2743 l-70 -67 93 -93 c91 -91 93 -93 140 -93 27 0 48 3 48 7 0
4 -38 46 -85 93 l-86 86 66 63 c36 34 65 65 65 67 0 2 -23 4 -51 4 -49 0 -53
-2 -120 -67z"/>
<path d="M4732 2747 c-34 -34 -62 -66 -62 -71 0 -4 37 -48 82 -97 l82 -89 70
1 71 0 77 92 78 92 -67 67 -67 68 -101 0 -101 0 -62 -63z"/>
<path d="M5382 2748 c-40 -34 -72 -66 -72 -73 0 -6 35 -46 78 -88 76 -76 80
-78 121 -75 l42 3 -66 73 -67 72 67 75 67 75 -49 0 c-46 0 -54 -4 -121 -62z"/>
<path d="M5710 2802 c0 -5 10 -17 21 -28 12 -10 39 -40 61 -67 l40 -47 -61
-69 c-34 -38 -61 -71 -61 -75 0 -3 19 -6 43 -5 39 1 47 6 120 84 l77 82 -75
67 c-69 60 -80 66 -121 66 -24 0 -44 -4 -44 -8z"/>
<path d="M5890 2803 c0 -5 21 -24 46 -43 97 -74 97 -54 4 -166 l-82 -99 136
-3 c75 -1 196 -1 270 0 l135 3 -90 99 -90 99 63 58 63 58 -227 1 c-126 0 -228
-3 -228 -7z"/>
<path d="M4138 2228 c-34 -12 -38 -53 -8 -90 15 -20 29 -25 60 -25 47 0 80 31
80 77 0 22 -6 30 -31 39 -38 13 -64 13 -101 -1z"/>
<path d="M3162 1737 c-23 -23 -42 -47 -42 -53 0 -5 20 -30 45 -54 l45 -44 45
44 c25 24 45 49 45 54 0 11 -80 96 -90 96 -3 0 -25 -19 -48 -43z"/>
<path d="M5112 1737 c-23 -23 -42 -47 -42 -53 0 -5 20 -30 45 -54 l45 -44 45
44 c25 24 45 49 45 54 0 11 -80 96 -90 96 -3 0 -25 -19 -48 -43z"/>
<path d="M4142 1567 c-23 -23 -42 -47 -42 -53 0 -5 20 -30 45 -54 l45 -44 45
44 c25 24 45 49 45 54 0 11 -80 96 -90 96 -3 0 -25 -19 -48 -43z"/>
<path d="M4102 3391 c-93 -32 -142 -103 -157 -223 l-6 -58 50 0 50 0 11 54
c15 71 46 117 92 134 87 33 167 -20 189 -126 l13 -62 49 0 50 0 -7 63 c-8 76
-47 159 -87 188 -38 27 -111 49 -158 49 -20 -1 -60 -9 -89 -19z"/>
</g>
</svg>
